<svg aria-hidden="true" style="position: absolute; width: 0; height: 0; overflow: hidden;" version="1.1" xmlns="http://www.w3.org/2000/svg" xmlns:xlink="http://www.w3.org/1999/xlink">
<defs>
<symbol id="mobile-burger-menu" viewBox="0 0 57 32">
<path d="M1.684 0h53.101c0.93 0 1.684 0.754 1.684 1.684v2.279c0 0.93-0.754 1.684-1.684 1.684h-53.101c-0.93 0-1.684-0.754-1.684-1.684v-2.279c0-0.93 0.754-1.684 1.684-1.684z"></path>
<path d="M1.684 13.177h53.101c0.93 0 1.684 0.754 1.684 1.684v2.279c0 0.93-0.754 1.684-1.684 1.684h-53.101c-0.93 0-1.684-0.754-1.684-1.684v-2.279c0-0.93 0.754-1.684 1.684-1.684z"></path>
<path d="M1.684 26.353h36.574c0.93 0 1.684 0.754 1.684 1.684v2.279c0 0.93-0.754 1.684-1.684 1.684h-36.574c-0.93 0-1.684-0.754-1.684-1.684v-2.279c0-0.93 0.754-1.684 1.684-1.684z"></path>
</symbol>
<symbol id="mobile-close-btn" viewBox="0 0 32 32">
<path d="M17.88 16l5.734-5.72c0.242-0.242 0.392-0.577 0.392-0.947 0-0.739-0.599-1.339-1.339-1.339-0.37 0-0.704 0.15-0.946 0.392v0l-5.72 5.734-5.72-5.735c-0.242-0.242-0.577-0.392-0.946-0.392-0.739 0-1.339 0.599-1.339 1.339 0 0.37 0.15 0.705 0.392 0.947v0l5.733 5.72-5.733 5.72c-0.244 0.242-0.394 0.576-0.394 0.946s0.151 0.705 0.394 0.946l0 0c0.242 0.244 0.576 0.394 0.946 0.394s0.705-0.151 0.946-0.394l0-0 5.72-5.733 5.72 5.733c0.242 0.244 0.576 0.394 0.946 0.394s0.705-0.151 0.946-0.394l0-0c0.244-0.242 0.394-0.576 0.394-0.946s-0.151-0.705-0.394-0.946l-0-0-5.733-5.72z"></path>
</symbol>
</defs>
</svg>
